<svg preserveAspectRatio="none" overflow="visible" style="display: block;" width="17.4375" height="18" viewBox="0 0 17.4375 18" fill="none" xmlns="http://www.w3.org/2000/svg">
<g id="Container">
<path id="Symbol" d="M0 2.25C0.0234375 1.61719 0.246094 1.08984 0.667969 0.667969V0.667969C1.08984 0.246094 1.61719 0.0234375 2.25 0H7.875V4.5C7.875 4.82812 7.98047 5.09766 8.19141 5.30859C8.40234 5.51953 8.67188 5.625 9 5.625H13.5V10.6875H6.1875C5.55469 10.7109 5.02734 10.9336 4.60547 11.3555C4.18359 11.7773 3.96094 12.3047 3.9375 12.9375V18H2.25C1.61719 17.9766 1.08984 17.7539 0.667969 17.332C0.246094 16.9102 0.0234375 16.3828 0 15.75V2.25V2.25V2.25M13.5 4.5H9V0L13.5 4.5V4.5V4.5M6.1875 12.375H7.3125C7.875 12.3984 8.34375 12.5859 8.71875 12.9375C9.07031 13.3125 9.25781 13.7812 9.28125 14.3438C9.25781 14.9062 9.07031 15.375 8.71875 15.75C8.34375 16.1016 7.875 16.2891 7.3125 16.3125H6.75V17.4375C6.72656 17.7891 6.53906 17.9766 6.1875 18C5.83594 17.9766 5.64844 17.7891 5.625 17.4375V15.75V12.9375C5.64844 12.5859 5.83594 12.3984 6.1875 12.375V12.375V12.375M7.3125 15.1875C7.82812 15.1406 8.10938 14.8594 8.15625 14.3438C8.10938 13.8281 7.82812 13.5469 7.3125 13.5H6.75V15.1875H7.3125V15.1875V15.1875M10.6875 12.375H11.8125C12.2812 12.3984 12.6797 12.5625 13.0078 12.8672C13.3125 13.1953 13.4766 13.5938 13.5 14.0625V16.3125C13.4766 16.7812 13.3125 17.1797 13.0078 17.5078C12.6797 17.8125 12.2812 17.9766 11.8125 18H10.6875C10.3359 17.9766 10.1484 17.7891 10.125 17.4375V12.9375C10.1484 12.5859 10.3359 12.3984 10.6875 12.375V12.375V12.375M11.8125 16.875C12.1641 16.8516 12.3516 16.6641 12.375 16.3125V14.0625C12.3516 13.7109 12.1641 13.5234 11.8125 13.5H11.25V16.875H11.8125V16.875V16.875M14.625 12.9375C14.6484 12.5859 14.8359 12.3984 15.1875 12.375H16.875C17.2266 12.3984 17.4141 12.5859 17.4375 12.9375C17.4141 13.2891 17.2266 13.4766 16.875 13.5H15.75V14.625H16.875C17.2266 14.6484 17.4141 14.8359 17.4375 15.1875C17.4141 15.5391 17.2266 15.7266 16.875 15.75H15.75V17.4375C15.7266 17.7891 15.5391 17.9766 15.1875 18C14.8359 17.9766 14.6484 17.7891 14.625 17.4375V15.1875V12.9375V12.9375V12.9375" fill="#FBBF24"/>
</g>
</svg>
